<svg width="67" height="67" viewBox="0 0 67 67" fill="none" xmlns="http://www.w3.org/2000/svg">
<path d="M47.8945 0H19.1055C16.3996 0 14.1982 2.20132 14.1982 4.90723V62.0928C14.1982 64.7987 16.3996 67 19.1055 67H47.8945C50.6004 67 52.8018 64.7987 52.8018 62.0928V4.90723C52.8018 2.20132 50.6004 0 47.8945 0ZM50.8389 53.2598H23.0312C22.4892 53.2598 22.0498 53.6992 22.0498 54.2412C22.0498 54.7832 22.4892 55.2227 23.0312 55.2227H50.8389V62.0928C50.8389 63.7163 49.5181 65.0371 47.8945 65.0371H19.1055C17.4819 65.0371 16.1611 63.7163 16.1611 62.0928V55.2227H19.1055C19.6475 55.2227 20.0869 54.7832 20.0869 54.2412C20.0869 53.6992 19.6475 53.2598 19.1055 53.2598H16.1611V9.81445H50.8389V53.2598ZM50.8389 7.85156H16.1611V4.90723C16.1611 3.28365 17.4819 1.96289 19.1055 1.96289H47.8945C49.5181 1.96289 50.8389 3.28365 50.8389 4.90723V7.85156Z" fill="#0A7F2E"/>
<path d="M37.4258 3.92578H33.5C32.958 3.92578 32.5186 4.36521 32.5186 4.90723C32.5186 5.44925 32.958 5.88867 33.5 5.88867H37.4258C37.9678 5.88867 38.4072 5.44925 38.4072 4.90723C38.4072 4.36521 37.9678 3.92578 37.4258 3.92578Z" fill="#0A7F2E"/>
<path d="M33.5 57.1855C31.8764 57.1855 30.5557 58.5063 30.5557 60.1299C30.5557 61.7535 31.8764 63.0742 33.5 63.0742C35.1236 63.0742 36.4443 61.7535 36.4443 60.1299C36.4443 58.5063 35.1236 57.1855 33.5 57.1855ZM33.5 61.1113C32.9588 61.1113 32.5186 60.6711 32.5186 60.1299C32.5186 59.5886 32.9588 59.1484 33.5 59.1484C34.0412 59.1484 34.4814 59.5886 34.4814 60.1299C34.4814 60.6711 34.0412 61.1113 33.5 61.1113Z" fill="#0A7F2E"/>
<path d="M29.5742 5.88867C30.1163 5.88867 30.5557 5.44926 30.5557 4.90723C30.5557 4.36519 30.1163 3.92578 29.5742 3.92578C29.0322 3.92578 28.5928 4.36519 28.5928 4.90723C28.5928 5.44926 29.0322 5.88867 29.5742 5.88867Z" fill="#0A7F2E"/>
</svg>
